PathFileType	4	(X/Y/Z)	C:\Users\Basilio\Documents\Thesis Gigler\squatting_fais\c3dfiles\039\SJ_pre5\markers_experimental.trc
DataRate	CameraRate	NumFrames	NumMarkers	Units	OrigDataRate	OrigDataStartFrame	OrigNumFrames
200.000000	200.000000	4	61	mm	200.000000	203	1630
Frame#	Time	FHD			LBHD			RBHD			C7			T10			CLAV			LSHO			LUUPA			LMUPA			LDUPA			LLEP			LMEP			LRAD			LUL			LRFIN			RSHO			RUPA1			RMUPA			RDUPA			RLEP			RMEP			RRAD			RUL			RUFIN			LASI			RASI			USACR			LSACR			RSACR			LTHI1			LTHI2			LTHI3			LTHI4			LLFC			LMFC			LTIB1			LTIB2			LTIB3			LTIB4			LLMAL			LMMAL			LHEE			LMT1			LMT2			LMT5			RTHI			RTHI2			RTHI3			RTHI4			RLFC			RMFC			RTIB1			RTIB2			RTIB3			RTIB4			RLMAL			RMMAL			RHEE			RMT1			RMT2			RMT5			
		X1	Y1	Z1	X2	Y2	Z2	X3	Y3	Z3	X4	Y4	Z4	X5	Y5	Z5	X6	Y6	Z6	X7	Y7	Z7	X8	Y8	Z8	X9	Y9	Z9	X10	Y10	Z10	X11	Y11	Z11	X12	Y12	Z12	X13	Y13	Z13	X14	Y14	Z14	X15	Y15	Z15	X16	Y16	Z16	X17	Y17	Z17	X18	Y18	Z18	X19	Y19	Z19	X20	Y20	Z20	X21	Y21	Z21	X22	Y22	Z22	X23	Y23	Z23	X24	Y24	Z24	X25	Y25	Z25	X26	Y26	Z26	X27	Y27	Z27	X28	Y28	Z28	X29	Y29	Z29	X30	Y30	Z30	X31	Y31	Z31	X32	Y32	Z32	X33	Y33	Z33	X34	Y34	Z34	X35	Y35	Z35	X36	Y36	Z36	X37	Y37	Z37	X38	Y38	Z38	X39	Y39	Z39	X40	Y40	Z40	X41	Y41	Z41	X42	Y42	Z42	X43	Y43	Z43	X44	Y44	Z44	X45	Y45	Z45	X46	Y46	Z46	X47	Y47	Z47	X48	Y48	Z48	X49	Y49	Z49	X50	Y50	Z50	X51	Y51	Z51	X52	Y52	Z52	X53	Y53	Z53	X54	Y54	Z54	X55	Y55	Z55	X56	Y56	Z56	X57	Y57	Z57	X58	Y58	Z58	X59	Y59	Z59	X60	Y60	Z60	X61	Y61	Z61	

204	1.015	-180.082015991211	1769.937866210938	-825.3951416015627	-326.0223999023438	1708.79248046875	-949.2117919921877	-305.3258361816407	1722.778930664063	-810.291198730469	-348.9911499023438	1564.616577148438	-886.978454589844	-368.3524780273438	1248.971313476563	-893.9160156250002	-207.8573608398438	1489.635009765625	-887.8675537109377	-265.5052185058594	1540.833374023438	-1076.274536132813	-352.5551757812501	1402.249755859375	-1238.292114257813	-314.4803771972657	1368.839965820313	-1241.391235351563	-353.9820861816407	1347.458618164063	-1282.277099609375	-349.2319030761719	1282.201782226563	-1311.728759765625	-425.2973632812501	1263.55029296875	-1268.082397460938	-330.6527404785157	1042.763671875	-1142.442138671875	-278.7398071289063	1027.061645507813	-1197.1611328125	-278.8888549804688	1051.082885742188	-1093.438232421875	-242.6398315429688	1531.39697265625	-694.0729370117189	-361.7389221191407	1412.0166015625	-544.7660522460939	-330.9183349609376	1374.270141601563	-531.9786376953126	-379.9063415527344	1360.983520507813	-500.2980346679689	-376.9451293945313	1295.984619140625	-470.1925048828126	-451.7857666015626	1283.372436523438	-518.0728149414064	-326.7615966796876	1092.361938476563	-681.0436401367189	-312.2735290527344	1045.532104492188	-622.6157226562501	-268.8805847167969	1069.973388671875	-723.6028442382814	-212.0237274169922	1054.864013671875	-1011.176452636719	-212.9396209716797	1039.341918945313	-790.9114379882815	-388.8137512207032	1123.868774414063	-893.676940917969	-396.428436279297	1094.1123046875	-923.256042480469	-399.5726623535157	1093.029907226563	-865.0325927734377	-274.4634399414063	782.9647216796877	-1099.22314453125	-236.280258178711	707.6036376953126	-1105.873779296875	-188.3700866699219	713.8395996093751	-1098.892944335938	-258.1907043457032	652.5178833007814	-1092.496704101563	-248.8140869140626	531.3575439453126	-1095.13671875	-210.6646728515626	502.6927490234376	-983.476501464844	-197.8335113525391	380.7324218750001	-1081.321044921875	-271.3949584960938	347.6121826171876	-1119.05224609375	-230.8365478515626	339.0249023437501	-1105.363037109375	-235.275131225586	257.8481445312501	-1068.806030273438	-316.4247131347657	99.47419738769534	-1101.595581054688	-290.7171020507813	94.14993286132814	-1017.833801269531	-381.6590881347657	40.92157745361329	-1059.4345703125	-146.8058013916016	56.05927658081056	-1071.710571289063	-159.1264190673828	55.4104347229004	-1113.62353515625	-207.4030456542969	31.32103538513184	-1160.0771484375	-261.0465087890626	782.9309692382815	-698.1798706054689	-214.5253906250001	736.2052001953126	-685.9216308593751	-182.7806396484375	743.2298583984376	-690.3198242187501	-229.6165618896485	651.1286010742189	-689.9541625976564	-242.7285308837891	511.8200683593751	-704.3250122070314	-190.386215209961	493.4800720214845	-808.5113525390627	-216.9706726074219	301.9045104980469	-696.4845581054689	-307.7591857910157	242.8605041503907	-693.4074096679689	-262.2663574218751	231.7560729980469	-686.9190673828126	-244.3337554931641	179.400146484375	-711.6503906250001	-317.4461669921876	92.03460693359376	-690.0979003906251	-278.9872436523438	100.0184631347657	-771.4802856445315	-378.5541076660157	40.91130065917969	-741.2439575195314	-145.6667633056641	51.54484176635744	-716.5472412109376	-156.2856597900391	56.45091247558595	-671.6027832031251	-213.2808532714844	29.56360435485841	-624.7097778320314	
205	1.02	-179.9696655273438	1769.748168945313	-825.3793945312502	-325.8348388671876	1708.681396484375	-949.2081298828127	-305.2432250976563	1722.670043945313	-810.269958496094	-348.9715270996094	1564.60791015625	-887.0361328125002	-368.3606567382813	1248.883911132813	-893.910583496094	-207.8572540283204	1489.461669921875	-887.9031372070315	-265.4646301269532	1540.789794921875	-1076.252563476563	-352.5639648437501	1402.1669921875	-1238.356079101563	-314.5163269042969	1368.7744140625	-1241.409790039063	-354.0614929199219	1347.39892578125	-1282.298706054688	-349.1898193359376	1282.197631835938	-1311.713623046875	-425.1492004394532	1263.587890625	-1268.051025390625	-329.9461364746094	1042.642456054688	-1142.233276367188	-278.4667968750001	1026.984008789063	-1196.928833007813	-279.0086059570313	1051.079467773438	-1093.455810546875	-242.4779968261719	1531.026977539063	-694.4852905273439	-361.7631225585938	1411.91162109375	-544.7279052734376	-330.9261474609376	1374.18603515625	-531.9907226562501	-379.9502563476563	1360.918823242188	-500.3645324707032	-376.9650878906251	1295.938232421875	-470.2106018066407	-451.8551330566407	1283.317138671875	-518.1130981445314	-326.8649291992188	1092.288330078125	-681.0764160156251	-312.3682556152344	1045.480590820313	-622.6268310546876	-268.9505920410157	1069.921142578125	-723.6373291015626	-212.0897674560547	1054.817749023438	-1011.208251953125	-213.0064086914063	1039.258666992188	-790.9387817382815	-388.856658935547	1123.776000976563	-893.6832275390627	-396.5280761718751	1094.100708007813	-923.2573852539065	-399.7877197265626	1092.978515625	-865.1064453125002	-274.3969726562501	782.9135742187502	-1099.304809570313	-236.2413940429688	707.5707397460939	-1105.942138671875	-188.3211669921875	713.8258056640626	-1098.921142578125	-258.0749816894532	652.5036621093751	-1092.550170898438	-248.5986022949219	531.2386474609376	-1095.203735351563	-210.0633544921876	502.8195800781251	-983.323425292969	-197.6917419433594	380.6423034667969	-1081.253662109375	-271.6560058593751	346.9312133789063	-1119.167602539063	-230.7833251953126	338.9708251953126	-1105.319091796875	-235.0965728759766	258.1949462890626	-1068.523315429688	-316.2691955566407	99.79878234863284	-1101.497314453125	-290.7287597656251	94.13890838623048	-1017.816528320313	-381.6409301757813	40.96111297607423	-1059.444702148438	-146.7759246826172	56.10777664184572	-1071.7080078125	-159.1257629394532	55.45925903320314	-1113.63427734375	-207.3723754882813	31.32278060913087	-1160.057861328125	-261.0711669921876	782.847595214844	-698.1547851562501	-214.5308990478516	736.1123046875001	-685.9302978515626	-182.8063049316407	743.2107543945314	-690.3321533203126	-229.5329589843751	651.0569458007814	-689.9375000000001	-242.6062164306641	511.800018310547	-704.2526855468751	-190.286605834961	493.4230957031251	-808.3959960937502	-216.8509979248047	301.7629089355469	-696.4433593750001	-307.7551269531251	242.9859008789063	-693.4506835937501	-262.1940002441407	231.7213134765626	-686.8999633789064	-244.3117218017579	179.4314270019532	-711.5917968750001	-317.4188537597657	92.03106689453126	-690.1052856445314	-278.9258422851563	100.0271682739258	-771.5070800781252	-378.5715332031251	40.94107818603516	-741.2290039062501	-145.6847076416016	51.54040527343751	-716.5413818359376	-156.2843170166016	56.47278976440431	-671.6135253906251	-213.1383361816407	29.80256271362305	-624.6723632812501	
206	1.025	-179.794174194336	1769.658325195313	-825.416198730469	-325.9159851074219	1708.64990234375	-949.1252441406252	-305.1450195312501	1722.634643554688	-810.267028808594	-348.9315490722657	1564.565307617188	-887.0302734375002	-368.2042236328126	1248.826416015625	-893.865417480469	-207.8987731933594	1489.365844726563	-887.8477783203127	-265.3695678710938	1540.667724609375	-1076.2314453125	-352.5290527343751	1402.154052734375	-1238.375	-314.4458923339844	1368.791381835938	-1241.387939453125	-354.0635681152344	1347.383911132813	-1282.326904296875	-349.2026672363282	1282.123657226563	-1311.717041015625	-425.3156738281251	1263.518432617188	-1268.153564453125	-330.7851562500001	1042.679077148438	-1142.45458984375	-278.7440795898438	1026.96435546875	-1197.180297851563	-279.0786437988282	1051.01025390625	-1093.460205078125	-242.5627136230469	1531.181762695313	-694.1323242187501	-361.5413818359376	1412.046508789063	-544.5842285156251	-330.9670410156251	1374.08642578125	-531.9746704101564	-379.9963684082032	1360.936889648438	-500.346160888672	-377.0733337402344	1295.865844726563	-470.2587280273439	-451.9185791015626	1283.271606445313	-518.1022338867189	-326.8943176269532	1092.211669921875	-681.0582275390626	-312.4856262207032	1045.378295898438	-622.6978759765626	-269.0880432128907	1069.874267578125	-723.6589355468751	-212.2425689697266	1054.74560546875	-1011.203125	-213.007553100586	1039.105590820313	-790.9793090820315	-388.9044494628907	1123.76123046875	-893.7058105468752	-396.6679687500001	1094.048217773438	-923.3054809570315	-399.8023071289064	1092.884155273438	-865.086364746094	-274.3363647460938	782.8276367187502	-1099.349731445313	-236.1463470458985	707.5992431640626	-1105.972290039063	-188.2086181640625	713.8313598632814	-1098.98193359375	-257.9448242187501	652.4365844726564	-1092.605834960938	-248.3659057617188	531.2027587890626	-1095.303833007813	-209.8804931640626	502.8017883300782	-983.3194580078127	-197.5451049804688	380.5360107421876	-1081.2080078125	-271.4888305664063	346.9199523925782	-1119.239379882813	-230.6684112548829	338.8939514160157	-1105.39501953125	-235.0052490234376	258.1872558593751	-1068.502197265625	-316.3914794921876	99.50612640380862	-1101.603149414063	-290.7185058593751	94.15022277832033	-1017.839172363281	-381.6553039550782	40.91860961914063	-1059.438720703125	-146.8072357177735	56.43914794921876	-1071.495727539063	-159.1529083251953	55.47797012329103	-1113.654907226563	-207.4422149658204	31.28217887878419	-1160.018432617188	-261.0767517089844	782.7991943359377	-698.1177368164064	-214.4370880126954	736.0740966796876	-685.8933105468751	-182.7747650146485	743.1694946289064	-690.2590942382814	-229.5235443115235	651.1032714843751	-689.9821166992189	-242.4192962646485	511.7383728027345	-704.1812744140626	-190.1230163574219	493.3892822265626	-808.345397949219	-216.7427062988282	301.6654357910157	-696.4530639648439	-307.6189270019532	242.8736724853516	-693.3847045898439	-262.1290893554688	231.6643066406251	-686.9487304687501	-244.2426147460938	179.3899230957032	-711.5697631835939	-317.3929748535157	92.05349731445314	-690.0905151367189	-278.8695373535157	100.0117111206055	-771.4818115234377	-378.5595397949219	40.91430282592774	-741.2464599609376	-145.6370697021485	51.51549148559572	-716.5331420898439	-156.3221893310547	56.55456542968751	-671.6440429687501	-213.2704315185547	29.59450340270997	-624.7655639648439	
207	1.03	-179.6976013183594	1769.5703125	-825.340515136719	-325.6600341796876	1708.528076171875	-949.1365966796877	-305.0344543457032	1722.502075195313	-810.2900390625002	-348.8294677734376	1564.468505859375	-887.039245605469	-368.2092285156251	1248.731079101563	-893.8720703125002	-207.8881072998047	1489.1728515625	-887.8977661132815	-265.3836059570313	1540.579467773438	-1076.228149414063	-352.5545959472657	1402.105590820313	-1238.370483398438	-314.5414123535157	1368.657104492188	-1241.468017578125	-354.0772094726563	1347.28076171875	-1282.328125	-349.1721801757813	1282.0986328125	-1311.733154296875	-425.3773803710939	1263.456420898438	-1268.199340820313	-330.0523376464844	1042.512939453125	-1142.272216796875	-278.5310974121094	1026.835083007813	-1196.966430664063	-279.1518859863282	1050.941040039063	-1093.509033203125	-242.5001525878907	1530.960571289063	-694.2643432617189	-361.8067016601563	1411.828735351563	-544.7216186523439	-330.9618530273438	1374.035278320313	-531.9353637695314	-379.9785156250001	1360.80029296875	-500.3873291015626	-377.0895385742188	1295.804565429688	-470.2690734863282	-451.9660034179689	1283.18798828125	-518.1511840820314	-326.8895874023438	1092.126953125	-681.0790405273439	-312.5392761230469	1045.313842773438	-622.7066650390626	-269.1709289550782	1069.796142578125	-723.7268676757814	-212.3003234863282	1054.656494140625	-1011.226745605469	-213.0575256347657	1038.9228515625	-791.0293579101565	-389.006805419922	1123.670654296875	-893.738220214844	-396.7958984375001	1094.022094726563	-923.2966918945315	-399.9482421875001	1092.863891601563	-865.1226806640627	-274.2898864746094	782.7058715820315	-1099.382690429688	-236.1188659667969	707.5369873046876	-1106.0361328125	-188.2058715820313	713.7976684570314	-1099.036376953125	-257.7682189941407	652.3786621093751	-1092.661376953125	-248.0936889648438	531.0919799804689	-1095.410766601563	-209.6563568115235	502.7872619628907	-983.4556274414065	-197.5067596435547	380.4928894042969	-1081.339477539063	-271.4027099609376	346.9218139648438	-1119.26611328125	-230.3788604736329	338.9104919433594	-1105.473754882813	-234.8766174316407	258.0887145996094	-1068.495361328125	-316.3816833496094	99.5087814331055	-1101.601196289063	-290.7259521484376	94.14897918701173	-1017.818603515625	-381.6827392578126	40.94339752197266	-1059.374267578125	-146.6960601806641	56.12577438354494	-1071.6328125	-159.1504516601563	55.48125457763673	-1113.645874023438	-207.4229888916016	31.35592079162598	-1160.02685546875	-261.0839538574219	782.7159423828127	-698.1705932617189	-214.3811798095704	735.9915771484376	-685.8936157226564	-182.7588195800782	743.1560668945314	-690.2635498046876	-229.3812713623047	651.0177612304689	-689.9124755859376	-242.128158569336	511.9232177734376	-703.9985961914064	-189.9906463623047	493.3212280273439	-808.303405761719	-216.6802368164063	301.6368103027344	-696.4378662109376	-307.4925231933594	242.8572082519532	-693.3773193359376	-262.0407409667969	231.5389251708985	-686.9600219726564	-244.1901550292969	179.3438262939453	-711.5548095703126	-317.3232421875001	92.06031036376955	-690.0670776367189	-278.8218078613282	100.0395431518555	-771.447204589844	-378.5531921386719	40.92546081542969	-741.2219848632814	-145.6616973876953	51.45677566528322	-716.5701904296876	-156.3075256347657	56.56456375122072	-671.6515502929689	-213.2868194580079	29.60769844055176	-624.7828979492189	
